HIERARCHY
ROOT RootJoint
{
    OFFSET   0.000000   0.000000   0.000000
    CHANNELS 6 Xposition Yposition Zposition Xrotation Yrotation Zrotation
    JOINT pelvis_lowerback
    {
        OFFSET   0.000000   0.093605   0.000000
        CHANNELS 3 Xrotation Yrotation Zrotation
        JOINT lowerback_torso
        {
            OFFSET   0.000000   0.100000   0.000000
            CHANNELS 3 Xrotation Yrotation Zrotation
            JOINT torso_head
            {
                OFFSET   0.000000   0.282350   0.000000
                CHANNELS 3 Xrotation Yrotation Zrotation
                End Site
                {
                    OFFSET   0.000000   0.192650   0.000000
                }
            }
            JOINT rTorso_Clavicle
            {
                OFFSET  -0.001000   0.157500   0.000000
                CHANNELS 3 Xrotation Yrotation Zrotation
                JOINT rShoulder
                {
                    OFFSET  -0.117647   0.000000   0.000000
                    CHANNELS 3 Xrotation Yrotation Zrotation
                    JOINT rElbow
                    {
                        OFFSET  -0.245000   0.000000   0.000000
                        CHANNELS 3 Xrotation Yrotation Zrotation
                        JOINT rWrist
                        {
                            OFFSET  -0.240000   0.000000   0.000000
                            CHANNELS 3 Xrotation Yrotation Zrotation
                            End Site
                            {
                                OFFSET  -0.116353  -0.002500   0.000000
                            }
                        }
                    }
                }
            }
            JOINT lTorso_Clavicle
            {
                OFFSET   0.001000   0.157500   0.000000
                CHANNELS 3 Xrotation Yrotation Zrotation
                JOINT lShoulder
                {
                    OFFSET   0.117647   0.000000   0.000000
                    CHANNELS 3 Xrotation Yrotation Zrotation
                    JOINT lElbow
                    {
                        OFFSET   0.245000   0.000000   0.000000
                        CHANNELS 3 Xrotation Yrotation Zrotation
                        JOINT lWrist
                        {
                            OFFSET   0.240000   0.000000   0.000000
                            CHANNELS 3 Xrotation Yrotation Zrotation
                            End Site
                            {
                                OFFSET   0.116353  -0.002500   0.000000
                            }
                        }
                    }
                }
            }
        }
    }
    JOINT rHip
    {
        OFFSET  -0.100000  -0.051395   0.000000
        CHANNELS 3 Xrotation Yrotation Zrotation
        JOINT rKnee
        {
            OFFSET   0.000000  -0.410000   0.000000
            CHANNELS 3 Xrotation Yrotation Zrotation
            JOINT rAnkle
            {
                OFFSET   0.000000  -0.390000   0.000000
                CHANNELS 3 Xrotation Yrotation Zrotation
                JOINT rToeJoint
                {
                    OFFSET   0.000000  -0.050000   0.130000
                    CHANNELS 3 Xrotation Yrotation Zrotation
                    End Site
                    {
                        OFFSET  -0.010000   0.002000   0.060000
                    }
                }
            }
        }
    }
    JOINT lHip
    {
        OFFSET   0.100000  -0.051395   0.000000
        CHANNELS 3 Xrotation Yrotation Zrotation
        JOINT lKnee
        {
            OFFSET   0.000000  -0.410000   0.000000
            CHANNELS 3 Xrotation Yrotation Zrotation
            JOINT lAnkle
            {
                OFFSET   0.000000  -0.390000   0.000000
                CHANNELS 3 Xrotation Yrotation Zrotation
                JOINT lToeJoint
                {
                    OFFSET   0.000000  -0.050000   0.130000
                    CHANNELS 3 Xrotation Yrotation Zrotation
                    End Site
                    {
                        OFFSET   0.010000   0.002000   0.060000
                    }
                }
            }
        }
    }
}
MOTION
Frames: 14
Frame Time:   0.008333
 -2.376719   0.925631   3.975860   0.000000   0.000000   0.000000   0.000000   0.000000   0.000000   0.000000   0.000000   0.000000   0.000000   0.000000   0.000000   0.000000   0.000000   0.000000   0.000000   0.000000   0.000000   0.000000   0.000000   0.000000   0.000000   0.000000   0.000000   0.000000   0.000000   0.000000   0.000000   0.000000   0.000000   0.000000   0.000000   0.000000   0.000000   0.000000   0.000000   0.000000   0.000000   0.000000   0.000000   0.000000   0.000000   0.000000   0.000000   0.000000   0.000000   0.000000   0.000000   0.000000   0.000000   0.000000   0.000000   0.000000   0.000000   0.000000   0.000000   0.000000   0.000000   0.000000   0.000000
 -2.376765   0.926307   3.976244  -0.342908   0.104006  -0.094507   0.318206  -0.005731   0.065585   0.121938  -0.160713   0.058153  -0.134799   0.176897   0.118968   0.052485  -0.252602   0.353562   0.261192   0.119703   2.118622   0.016306   0.746037  -0.002749   0.208902  -0.241056  -2.924679   0.209495   0.257373  -0.639806   0.818927  -0.086776  -1.944706   0.014546  -0.649983   0.006448   0.286598   0.217188   2.958532   0.283581   0.168197   0.075362   0.385754   0.000070   0.000914  -0.485811  -0.062307   0.024171  -0.279683   0.000015  -0.000511   0.223217  -0.253461   0.174197   0.742871  -0.000521  -0.000967  -0.913494  -0.181758  -0.068739   0.219174  -0.000020  -0.000636
 -2.376852   0.927450   3.976833  -0.709020   0.210189  -0.194653   0.597259  -0.023886   0.130188   0.264124  -0.335338   0.119848  -0.248284   0.347190   0.250152   0.106664  -0.497765   1.456166   0.510370   0.257086   4.837157   0.037319   1.466424  -0.004446   0.435946  -0.272058  -5.096031   0.420359   0.483107  -2.056109   1.618226  -0.219242  -4.519452   0.033534  -1.276957   0.011050   0.607978   0.274137   5.147004   0.573510   0.339765   0.130049   0.812880   0.000250   0.001759  -0.941704  -0.118245   0.047131  -0.576323  -0.000041  -0.000980   0.521041  -0.499068   0.405225   1.554934  -0.001368  -0.001745  -1.767839  -0.353209  -0.135910   0.379429  -0.000107  -0.000946
 -2.376965   0.928621   3.977561  -1.052759   0.308125  -0.285901   0.830122  -0.054999   0.183195   0.382514  -0.513783   0.170140  -0.354423   0.506027   0.377732   0.162543  -0.726866   3.016878   0.747223   0.403573   7.949771   0.057526   2.140071  -0.005165   0.657373  -0.255339  -6.394318   0.623686   0.673168  -3.930841   2.393744  -0.400378  -7.504861   0.052033  -1.865790   0.013997   0.919451   0.275243   6.432659   0.832912   0.500666   0.152136   1.220834   0.000486   0.002314  -1.367607  -0.170638   0.068161  -0.856803  -0.000145  -0.001287   0.856019  -0.725446   0.666803   2.346827  -0.002305  -0.002244  -2.564610  -0.511658  -0.200643   0.521898  -0.000217  -0.001118
 -2.377095   0.929504   3.978383  -1.368596   0.393044  -0.367507   1.024806  -0.096993   0.223163   0.474694  -0.693527   0.207173  -0.456648   0.653962   0.498514   0.222587  -0.944500   4.833856   0.973763   0.556585  11.326326   0.074537   2.766700  -0.005213   0.867755  -0.236458  -7.043906   0.819861   0.834668  -6.054384   3.146853  -0.632640 -10.763367   0.067898  -2.417434   0.015795   1.217846   0.247853   7.048614   1.057204   0.650462   0.144785   1.599143   0.000729   0.002605  -1.765983  -0.219949   0.087350  -1.121245  -0.000271  -0.001455   1.213979  -0.933450   0.949894   3.103775  -0.003213  -0.002543  -3.308617  -0.658129  -0.262838   0.646806  -0.000325  -0.001192
 -2.377237   0.929865   3.979264  -1.658528   0.461326  -0.440889   1.189053  -0.147860   0.250523   0.545707  -0.873106   0.231262  -0.554794   0.791756   0.612022   0.288416  -1.154337   6.772596   1.191265   0.714454  14.877670   0.087513   3.348051  -0.004833   1.065277  -0.230382  -7.256842   1.008894   0.973523  -8.291296   3.875599  -0.915665 -14.196112   0.080315  -2.933655   0.016823   1.502937   0.203023   7.211504   1.248093   0.789843   0.113127   1.947614   0.000951   0.002691  -2.138611  -0.266344   0.104870  -1.369479  -0.000401  -0.001513   1.587138  -1.124343   1.248808   3.824008  -0.004030  -0.002718  -4.003426  -0.793626  -0.322424   0.756519  -0.000417  -0.001204
 -2.377437   0.929520   3.980173  -1.925941   0.511054  -0.504082   1.329484  -0.205494   0.257996   0.601207  -1.050964   0.226380  -0.648476   0.920022   0.723018   0.361443  -1.358838   8.752900   1.400647   0.876165  18.549552   0.096414   3.886447  -0.004205   1.249648  -0.242738  -7.180826   1.192000   1.094412 -10.609738   4.537475  -1.229526 -17.566628   0.088870  -3.417451   0.017175   1.776389   0.138861   6.992123   1.408641   0.919475   0.063103   2.268125   0.001123   0.002627  -2.487124  -0.310036   0.120818  -1.601960  -0.000514  -0.001487   1.969703  -1.299385   1.559920   4.508247  -0.004749  -0.002815  -4.652244  -0.919116  -0.379434   0.853317  -0.000492  -0.001179
 -2.377633   0.927659   3.980495  -1.968216   0.540773  -0.601795   1.380234  -0.243120   0.332022   0.603408  -1.215299   0.190035  -0.909643   0.886561   0.757659   0.518213  -1.422803  10.164092   1.761457   0.983615  21.858985   0.105371   4.573309  -0.005732   1.307630  -0.307978  -5.861226   1.406338   1.192678 -12.073585   4.961785  -1.589817 -20.926329   0.091902  -3.897648   0.016994   1.938852  -0.058447   5.642582   1.246623   0.790766   0.071617   2.713252   0.001263   0.001684  -2.566560  -0.373495   0.360875  -1.478798  -0.000564  -0.001370   2.142352  -1.370803   1.880499   4.611427  -0.004003  -0.002274  -5.136827  -0.963356  -0.348608   1.009273  -0.000744  -0.001066
 -2.377815   0.924534   3.980493  -1.981528   0.597154  -0.698255   1.478665  -0.284863   0.405921   0.611651  -1.372825   0.156644  -1.166614   0.848416   0.782211   0.652501  -1.441284  11.256487   2.083194   1.127368  24.794339   0.107275   5.226808  -0.007090   1.378073  -0.309808  -4.663868   1.589936   1.249451 -13.200525   5.330823  -1.962821 -23.905854   0.090478  -4.354228   0.016706   2.091235  -0.300648   4.408443   1.071128   0.654136   0.098606   3.128270   0.001271   0.001028  -2.635415  -0.435570   0.584828  -1.331667  -0.000641  -0.001287   2.209889  -1.435044   2.173347   4.593390  -0.003171  -0.001821  -5.594695  -1.003304  -0.319823   1.146332  -0.000874  -0.000915
 -2.377978   0.920293   3.980305  -1.989390   0.663156  -0.789889   1.610482  -0.318708   0.476280   0.640371  -1.515817   0.127133  -1.402098   0.812428   0.803531   0.763915  -1.431507  12.119684   2.366598   1.293719  27.422226   0.104730   5.845252  -0.008163   1.452668  -0.268952  -3.731967   1.747003   1.281007 -14.090256   5.652014  -2.335701 -26.569099   0.086333  -4.785311   0.016215   2.237298  -0.556490   3.448921   0.917229   0.526490   0.136960   3.513739   0.001200   0.000592  -2.699171  -0.493644   0.793883  -1.193033  -0.000696  -0.001182   2.203542  -1.495330   2.434826   4.533661  -0.002448  -0.001468  -6.023830  -1.040769  -0.293366   1.269810  -0.000922  -0.000768
 -2.378065   0.920317   3.980605  -2.151632   0.635031  -0.648878   1.802041  -0.308203   0.357196   0.732816  -1.616450   0.025061  -1.606961   0.780089   0.818652   0.859882  -1.400150  13.146058   2.617311   1.472420  29.912493   0.101367   6.420341  -0.008577   1.527889  -0.236753  -3.062826   1.893396   1.311023 -15.089705   5.935791  -2.690431 -29.050380   0.081576  -5.176883   0.015344   2.372348  -0.737876   2.782755   0.832899   0.417084  -0.029942   3.997366   0.001050  -0.000122  -2.471633  -0.546877   0.996279  -0.961085  -0.000899  -0.001352   2.170722  -1.495610   2.289324   4.933743  -0.001972  -0.001218  -5.859697  -1.037637  -0.343116   1.463231  -0.000644  -0.000634
 -2.378268   0.920460   3.981103  -2.248834   0.589550  -0.534651   1.918427  -0.291100   0.289377   0.793194  -1.698655  -0.074998  -1.796886   0.749641   0.823979   0.954572  -1.378010  13.937302   2.847400   1.647622  32.210430   0.095796   6.963219  -0.008506   1.600822  -0.174552  -2.328373   2.043311   1.360702 -15.876277   6.194748  -3.020535 -31.354975   0.075684  -5.545409   0.014232   2.499720  -0.933349   2.053973   0.772425   0.326325  -0.159217   4.368695   0.000860  -0.000547  -2.530680  -0.585874   1.154830  -0.794818  -0.000927  -0.001341   2.182250  -1.523574   2.172213   5.201863  -0.001597  -0.001122  -6.024132  -1.062161  -0.343978   1.614438  -0.000517  -0.000626
 -2.378629   0.920657   3.981602  -2.295114   0.521962  -0.473192   2.013157  -0.262393   0.269877   0.828269  -1.762832  -0.148119  -1.981572   0.721225   0.831453   1.037565  -1.352010  14.579327   3.052936   1.820560  34.290474   0.088886   7.471773  -0.008225   1.670425  -0.103762  -1.706505   2.186263   1.413794 -16.527005   6.428497  -3.327771 -33.452559   0.069112  -5.886853   0.013055   2.618291  -1.112178   1.424584   0.697440   0.223474  -0.189654   4.657014   0.000574  -0.000863  -2.670784  -0.638272   1.302646  -0.800015  -0.000733  -0.001063   2.195178  -1.555518   2.118332   5.381662  -0.001311  -0.001042  -6.232490  -1.088219  -0.338991   1.728543  -0.000434  -0.000621
 -2.379190   0.920837   3.982142  -2.269809   0.520984  -0.409251   2.092411  -0.244574   0.169360   0.786751  -1.791202  -0.141531  -2.121872   0.644273   0.863218   1.065867  -1.459981  14.873719   3.229436   1.988694  35.873876   0.078935   7.943761  -0.007403   1.670986   0.029591  -0.453822   2.325540   1.481184 -16.714700   6.507388  -3.629720 -35.212026   0.062990  -6.315681   0.011645   2.705435  -1.285980   0.231916   0.715715   0.153526  -0.234564   4.649623   0.000461  -0.000686  -2.740971  -0.577510   1.438791  -0.660516  -0.000782  -0.000860   2.205374  -1.589457   2.084050   5.397877  -0.001054  -0.000838  -6.356371  -1.079504  -0.324242   1.797813  -0.000375  -0.000511
